name C:\Users\u0101727\Documents\MyRepositories\upper-imu-dc\Results\main_tracking\Case_31\FLX01_angularVelocities_bodyFrame.mot
datacolumns 4
datarows 141
range 2.01000000 3.41000000
endheader 
time	radius_imu_x	radius_imu_y	radius_imu_z	
          2.01000000	         -0.83596029	          0.04288485	         -0.85970366	
          2.02000000	         -0.84905085	          0.21823407	         -0.85474979	
          2.03000000	         -0.86334498	          0.42614957	         -0.85052166	
          2.04000000	         -0.87565279	          0.63169701	         -0.84612871	
          2.05000000	         -0.88345317	          0.80159287	         -0.84058003	
          2.06000000	         -0.88553691	          0.91303953	         -0.83311701	
          2.07000000	         -0.88219272	          0.95865344	         -0.82343674	
          2.08000000	         -0.87484373	          0.94513181	         -0.81170931	
          2.09000000	         -0.86527003	          0.88624575	         -0.79838484	
          2.10000000	         -0.85477845	          0.79396002	         -0.78389887	
          2.11000000	         -0.84381229	          0.67361732	         -0.76847735	
          2.12000000	         -0.83227893	          0.52700650	         -0.75220439	
          2.13000000	         -0.82033589	          0.36077254	         -0.73532022	
          2.14000000	         -0.80904096	          0.19336959	         -0.71854779	
          2.15000000	         -0.80044116	          0.05552793	         -0.70325053	
          2.16000000	         -0.79703394	         -0.01651593	         -0.69131781	
          2.17000000	         -0.80079355	          0.00729011	         -0.68476827	
          2.18000000	         -0.81216187	          0.13873805	         -0.68518289	
          2.19000000	         -0.82954693	          0.36490595	         -0.69321499	
          2.20000000	         -0.84967567	          0.65122701	         -0.70842193	
          2.21000000	         -0.86859775	          0.95203457	         -0.72946000	
          2.22000000	         -0.88275039	          1.22242243	         -0.75446967	
          2.23000000	         -0.88962483	          1.42656810	         -0.78144703	
          2.24000000	         -0.88794870	          1.54128887	         -0.80849865	
          2.25000000	         -0.87753740	          1.55601945	         -0.83397852	
          2.26000000	         -0.85902318	          1.47090931	         -0.85655068	
          2.27000000	         -0.83359787	          1.29430047	         -0.87521708	
          2.28000000	         -0.80280646	          1.04030748	         -0.88932488	
          2.29000000	         -0.76838648	          0.72684934	         -0.89855612	
          2.30000000	         -0.73215998	          0.37439359	         -0.90291038	
          2.31000000	         -0.69599981	          0.00564020	         -0.90269971	
          2.32000000	         -0.66186143	         -0.35396914	         -0.89856392	
          2.33000000	         -0.63181035	         -0.67562888	         -0.89148747	
          2.34000000	         -0.60793510	         -0.92762498	         -0.88277703	
          2.35000000	         -0.59205892	         -1.07809076	         -0.87395845	
          2.36000000	         -0.58525651	         -1.10065051	         -0.86657216	
          2.37000000	         -0.58730476	         -0.98222084	         -0.86187685	
          2.38000000	         -0.59631367	         -0.73030444	         -0.86052092	
          2.39000000	         -0.60884398	         -0.37541503	         -0.86231840	
          2.40000000	         -0.62063843	          0.03439144	         -0.86627481	
          2.41000000	         -0.62767772	          0.44491021	         -0.87087041	
          2.42000000	         -0.62705627	          0.80753880	         -0.87445246	
          2.43000000	         -0.61739025	          1.08719159	         -0.87557691	
          2.44000000	         -0.59879412	          1.26546321	         -0.87322276	
          2.45000000	         -0.57259450	          1.33988745	         -0.86687380	
          2.46000000	         -0.54093907	          1.32063079	         -0.85650182	
          2.47000000	         -0.50641393	          1.22614530	         -0.84250088	
          2.48000000	         -0.47172606	          1.07907125	         -0.82560657	
          2.49000000	         -0.43944669	          0.90295182	         -0.80680515	
          2.50000000	         -0.41178604	          0.71969228	         -0.78722700	
          2.51000000	         -0.39039354	          0.54760621	         -0.76802758	
          2.52000000	         -0.37621218	          0.40007940	         -0.75026779	
          2.53000000	         -0.36942125	          0.28496444	         -0.73480592	
          2.54000000	         -0.36947981	          0.20475112	         -0.72221357	
          2.55000000	         -0.37525550	          0.15743331	         -0.71272570	
          2.56000000	         -0.38520691	          0.13785494	         -0.70623101	
          2.57000000	         -0.39758443	          0.13923019	         -0.70230628	
          2.58000000	         -0.41062916	          0.15454107	         -0.70029706	
          2.59000000	         -0.42276500	          0.17761422	         -0.69944024	
          2.60000000	         -0.43277655	          0.20375640	         -0.69900643	
          2.61000000	         -0.43994135	          0.22985753	         -0.69842286	
          2.62000000	         -0.44407413	          0.25406719	         -0.69733761	
          2.63000000	         -0.44545595	          0.27523734	         -0.69561059	
          2.64000000	         -0.44468369	          0.29257583	         -0.69325550	
          2.65000000	         -0.44249612	          0.30559540	         -0.69037209	
          2.66000000	         -0.43963029	          0.31426748	         -0.68710310	
          2.67000000	         -0.43672515	          0.31935012	         -0.68362597	
          2.68000000	         -0.43425852	          0.32257047	         -0.68016007	
          2.69000000	         -0.43250137	          0.32634976	         -0.67696570	
          2.70000000	         -0.43148735	          0.33302625	         -0.67432356	
          2.71000000	         -0.43101514	          0.34393211	         -0.67250002	
          2.72000000	         -0.43069593	          0.35884599	         -0.67170767	
          2.73000000	         -0.43004155	          0.37611228	         -0.67206845	
          2.74000000	         -0.42856983	          0.39329125	         -0.67358763	
          2.75000000	         -0.42589490	          0.40791876	         -0.67614592	
          2.76000000	         -0.42177438	          0.41801906	         -0.67951112	
          2.77000000	         -0.41610614	          0.42231551	         -0.68336338	
          2.78000000	         -0.40889637	          0.42030721	         -0.68732563	
          2.79000000	         -0.40023458	          0.41234221	         -0.69099418	
          2.80000000	         -0.39029433	          0.39962942	         -0.69397013	
          2.81000000	         -0.37934512	          0.38402770	         -0.69589448	
          2.82000000	         -0.36774160	          0.36753397	         -0.69648368	
          2.83000000	         -0.35586920	          0.35161286	         -0.69555592	
          2.84000000	         -0.34406297	          0.33671424	         -0.69303896	
          2.85000000	         -0.33254496	          0.32230337	         -0.68895741	
          2.86000000	         -0.32141482	          0.30742867	         -0.68340652	
          2.87000000	         -0.31068894	          0.29147212	         -0.67652530	
          2.88000000	         -0.30035215	          0.27458487	         -0.66847863	
          2.89000000	         -0.29038983	          0.25756828	         -0.65944940	
          2.90000000	         -0.28079738	          0.24138581	         -0.64963614	
          2.91000000	         -0.27158008	          0.22669205	         -0.63924824	
          2.92000000	         -0.26274738	          0.21364371	         -0.62848980	
          2.93000000	         -0.25429187	          0.20200044	         -0.61752750	
          2.94000000	         -0.24614582	          0.19135116	         -0.60644818	
          2.95000000	         -0.23812905	          0.18130885	         -0.59522099	
          2.96000000	         -0.22992251	          0.17164446	         -0.58368180	
          2.97000000	         -0.22110383	          0.16238840	         -0.57155457	
          2.98000000	         -0.21125196	          0.15387661	         -0.55851279	
          2.99000000	         -0.20008349	          0.14669144	         -0.54426512	
          3.00000000	         -0.18755880	          0.14150767	         -0.52863543	
          3.01000000	         -0.17390701	          0.13891857	         -0.51160707	
          3.02000000	         -0.15955407	          0.13927921	         -0.49331443	
          3.03000000	         -0.14498189	          0.14252863	         -0.47398850	
          3.04000000	         -0.13057988	          0.14794382	         -0.45388679	
          3.05000000	         -0.11655000	          0.15382326	         -0.43324279	
          3.06000000	         -0.10289086	          0.15715273	         -0.41224871	
          3.07000000	         -0.08944169	          0.15341298	         -0.39105728	
          3.08000000	         -0.07594634	          0.13680402	         -0.36977984	
          3.09000000	         -0.06211297	          0.10110641	         -0.34847484	
          3.10000000	         -0.04767415	          0.04112870	         -0.32714200	
          3.11000000	         -0.03245866	         -0.04563997	         -0.30574077	
          3.12000000	         -0.01646344	         -0.15777322	         -0.28423593	
          3.13000000	          0.00011097	         -0.28964084	         -0.26265181	
          3.14000000	          0.01689836	         -0.43243162	         -0.24110585	
          3.15000000	          0.03347637	         -0.57618512	         -0.21980285	
          3.16000000	          0.04946577	         -0.71170943	         -0.19900480	
          3.17000000	          0.06447183	         -0.83068576	         -0.17902923	
          3.18000000	          0.07780681	         -0.92327155	         -0.16031350	
          3.19000000	          0.08818755	         -0.97513698	         -0.14349306	
          3.20000000	          0.09374996	         -0.96748325	         -0.12937677	
          3.21000000	          0.09255758	         -0.88210523	         -0.11875002	
          3.22000000	          0.08345621	         -0.71015668	         -0.11205052	
          3.23000000	          0.06686599	         -0.46030845	         -0.10906240	
          3.24000000	          0.04502910	         -0.16108669	         -0.10881260	
          3.25000000	          0.02148293	          0.14512409	         -0.10976376	
          3.26000000	          0.00002564	          0.41356912	         -0.11020873	
          3.27000000	         -0.01627057	          0.60813876	         -0.10865869	
          3.28000000	         -0.02561398	          0.70773551	         -0.10408093	
          3.29000000	         -0.02757664	          0.70748458	         -0.09597223	
          3.30000000	         -0.02285859	          0.61634007	         -0.08432128	
          3.31000000	         -0.01289850	          0.45279864	         -0.06950973	
          3.32000000	          0.00053574	          0.24011593	         -0.05218681	
          3.33000000	          0.01564792	          0.00244078	         -0.03315614	
          3.34000000	          0.03072324	         -0.23707654	         -0.01330495	
          3.35000000	          0.04409855	         -0.45647629	          0.00643449	
          3.36000000	          0.05413560	         -0.63482558	          0.02512567	
          3.37000000	          0.05929320	         -0.75278462	          0.04188817	
          3.38000000	          0.05832655	         -0.79446152	          0.05598121	
          3.39000000	          0.05061727	         -0.75084088	          0.06691863	
          3.40000000	          0.03656569	         -0.62411152	          0.07460452	
          3.41000000	          0.01786859	         -0.43084186	          0.07943517	
